<svg width="299" height="238" viewBox="0 0 299 238" fill="none" xmlns="http://www.w3.org/2000/svg">
<rect width="299" height="238" fill="#E5E5E5"/>
<g id="Contact" clip-path="url(#clip0_0_1)">
<rect width="1440" height="1128" transform="translate(-15 -890)" fill="white"/>
<g id="Cloud" opacity="0.5">
<path id="Vector" opacity="0.05" d="M347.539 -69.9952C338.376 -103.99 307.402 -129 270.595 -129C226.565 -129 190.885 -93.2319 190.885 -49.1228C190.885 -48.7944 190.911 -48.4792 190.911 -48.1639C153.881 -43.7241 126 -24.4805 126 -1.38823C126 12.1676 135.634 24.3968 151.076 33.0926C150.119 36.337 149.594 39.6997 149.594 43.1675C149.594 67.7704 175.116 87.7233 206.614 87.7233C226.722 87.7233 244.392 79.5793 254.537 67.2975C271.486 79.9996 293.809 87.7233 318.282 87.7233C371.265 87.7233 414.22 51.5611 414.22 6.9397C414.22 -29.078 386.221 -59.5787 347.539 -69.9952Z" fill="#C6C6C6"/>
</g>
<g id="Group 5067">
<rect id="Rectangle 24" x="-14.5" y="38.5" width="1439" height="199" fill="#FAFAFA" stroke="#D8D8D8"/>
</g>
<g id="red_cartoon 6" clip-path="url(#clip1_0_1)">
<g id="Group">
<path id="Vector_2" d="M218.884 225.942C175.22 265.761 108.448 263.637 69.745 221.198C31.0418 178.758 35.0633 112.073 78.7274 72.2535C122.391 32.4338 189.163 34.5579 227.867 76.9977C266.57 119.438 262.548 186.122 218.884 225.942Z" fill="#F472B7"/>
<path id="Vector_3" d="M104.344 129.984C106.961 132.853 108.006 129.478 110.957 126.787C113.909 124.095 117.654 123.11 115.033 120.236C112.412 117.362 107.903 117.223 104.951 119.915C101.995 122.602 101.723 127.11 104.344 129.984Z" fill="white"/>
<path id="Vector_4" d="M83.9197 148.61C86.536 151.479 87.5813 148.105 90.5329 145.413C93.4845 142.721 97.2297 141.736 94.6088 138.862C91.9878 135.988 87.4786 135.85 84.527 138.541C81.5707 141.228 81.2988 145.736 83.9197 148.61Z" fill="white"/>
<path id="Vector_5" d="M101.157 157.316C106.268 162.92 115.087 163.201 120.853 157.942C126.62 152.684 127.151 143.876 122.04 138.272C116.929 132.667 117.72 142.925 111.953 148.183C106.187 153.442 96.0461 151.711 101.157 157.316Z" fill="white"/>
</g>
</g>
</g>
<defs>
<clipPath id="clip0_0_1">
<rect width="1440" height="1128" fill="white" transform="translate(-15 -890)"/>
</clipPath>
<clipPath id="clip1_0_1">
<rect width="214" height="208" fill="white" transform="matrix(-0.738886 0.673831 0.673831 0.738886 158.122 0)"/>
</clipPath>
</defs>
</svg>
